<?xml version="1.0" standalone="no"?>
<!DOCTYPE svg PUBLIC "-//W3C//DTD SVG 20010904//EN"
 "http://www.w3.org/TR/2001/REC-SVG-20010904/DTD/svg10.dtd">
<svg version="1.0" xmlns="http://www.w3.org/2000/svg"
 width="700.000000pt" height="700.000000pt" viewBox="0 0 700.000000 700.000000"
 preserveAspectRatio="xMidYMid meet">
<metadata>
Created by potrace 1.14, written by Peter Selinger 2001-2017
</metadata>
<g transform="translate(0.000000,700.000000) scale(0.100000,-0.100000)"
fill="#000000" stroke="none">
<path d="M450 3500 l0 -3050 3050 0 3050 0 0 3050 0 3050 -3050 0 -3050 0 0
-3050z m2000 2000 l0 -950 -950 0 -950 0 0 950 0 950 950 0 950 0 0 -950z
m2000 0 l0 -950 -950 0 -950 0 0 950 0 950 950 0 950 0 0 -950z m2000 0 l0
-950 -950 0 -950 0 0 950 0 950 950 0 950 0 0 -950z m-4000 -2000 l0 -950
-950 0 -950 0 0 950 0 950 950 0 950 0 0 -950z m2000 0 l0 -950 -950 0 -950 0
0 950 0 950 950 0 950 0 0 -950z m2000 0 l0 -950 -950 0 -950 0 0 950 0 950
950 0 950 0 0 -950z m-4000 -2000 l0 -950 -950 0 -950 0 0 950 0 950 950 0
950 0 0 -950z m2000 0 l0 -950 -950 0 -950 0 0 950 0 950 950 0 950 0 0 -950z
m2000 0 l0 -950 -950 0 -950 0 0 950 0 950 950 0 950 0 0 -950z"/>
<path d="M3395 6295 c-5 -2 -43 -11 -84 -20 -232 -53 -439 -224 -538 -443 -52
-115 -71 -215 -68 -352 5 -170 45 -301 136 -434 100 -149 281 -274 464 -322
96 -25 293 -25 390 0 284 73 506 296 581 581 24 94 25 303 1 392 -99 361 -413
602 -786 601 -47 0 -90 -2 -96 -3z"/>
<path d="M5385 4294 c-93 -19 -163 -43 -240 -80 -220 -107 -369 -301 -432
-558 -12 -51 -11 -235 2 -301 50 -258 211 -466 445 -577 41 -19 89 -39 105
-43 17 -5 35 -9 40 -11 92 -27 285 -27 390 1 303 77 530 320 590 630 18 88 13
259 -10 343 -74 280 -279 488 -565 574 -62 18 -272 32 -325 22z"/>
<path d="M1395 2295 c-5 -2 -44 -11 -85 -20 -255 -58 -470 -252 -562 -505 -36
-101 -46 -170 -43 -295 4 -126 20 -199 67 -305 97 -217 297 -384 533 -446 96
-26 303 -25 395 1 277 78 477 271 566 545 24 75 27 101 28 220 0 101 -4 153
-18 205 -75 283 -278 491 -566 577 -58 17 -282 34 -315 23z"/>
<path d="M3364 2289 c-85 -14 -220 -68 -297 -119 -174 -115 -289 -275 -343
-475 -26 -96 -25 -303 1 -395 84 -296 294 -499 600 -581 74 -20 283 -17 370 5
279 72 488 277 576 566 31 100 33 310 4 410 -81 281 -276 482 -550 567 -88 27
-267 38 -361 22z"/>
<path d="M5409 2296 c-2 -2 -24 -6 -49 -9 -64 -8 -163 -43 -240 -84 -195 -105
-339 -290 -396 -508 -19 -74 -25 -253 -12 -333 36 -212 170 -414 353 -533 63
-41 164 -86 235 -105 70 -18 260 -25 340 -11 374 63 658 401 658 785 0 65 -10
157 -22 197 -2 6 -7 24 -11 40 -5 17 -21 58 -36 93 -97 216 -279 372 -519 444
-58 17 -288 36 -301 24z"/>
</g>
</svg>
